<?xml version="1.0" encoding="utf-8"?>
<!-- Generator: Adobe Illustrator 24.1.3, SVG Export Plug-In . SVG Version: 6.00 Build 0)  -->
<svg version="1.1" id="Ebene_1" xmlns="http://www.w3.org/2000/svg" xmlns:xlink="http://www.w3.org/1999/xlink" x="0px" y="0px"
	 viewBox="0 0 341.3 181.9" style="enable-background:new 0 0 341.3 181.9;" xml:space="preserve">
<style type="text/css">
	.st0{display:none;}
	.st1{display:inline;}
	.st2{enable-background:new    ;}
	.st3{fill:#FFFFFF;}
	.st4{fill:url(#SVGID_1_);}
	.st5{fill:url(#SVGID_2_);}
	.st6{fill:url(#SVGID_3_);}
	.st7{fill:url(#SVGID_4_);}
	.st8{fill:url(#SVGID_5_);}
	.st9{fill:url(#SVGID_6_);}
	.st10{fill:url(#SVGID_7_);}
	.st11{fill:url(#SVGID_8_);}
	.st12{fill:url(#SVGID_9_);}
	.st13{fill:url(#SVGID_10_);}
	.st14{fill:url(#SVGID_11_);}
	.st15{fill:url(#SVGID_12_);}
	.st16{fill:url(#SVGID_13_);}
	.st17{fill:url(#SVGID_14_);}
	.st18{fill:url(#SVGID_15_);}
	.st19{fill:url(#SVGID_16_);}
	.st20{fill:url(#SVGID_17_);}
	.st21{fill:url(#SVGID_18_);}
	.st22{fill:url(#SVGID_19_);}
	.st23{fill:url(#SVGID_20_);}
	.st24{fill:url(#SVGID_21_);}
	.st25{fill:url(#SVGID_22_);}
	.st26{fill:url(#SVGID_23_);}
	.st27{fill:url(#SVGID_24_);}
	.st28{fill:url(#SVGID_25_);}
	.st29{fill:url(#SVGID_26_);}
	.st30{fill:url(#SVGID_27_);}
	.st31{fill:url(#SVGID_28_);}
	.st32{fill:url(#SVGID_29_);}
	.st33{fill:url(#SVGID_30_);}
	.st34{fill:url(#SVGID_31_);}
</style>
<g id="Ebene_2_1_" class="st0">
	<rect x="-245.1" y="-8.6" class="st1" width="1538.1" height="837.1"/>
</g>
<g>
	<g id="Gruppe_7" transform="translate(0 0)">
		<g class="st2">
			<path class="st3" d="M-310.6-320v-4h10.4v4.8c0,5,2.2,6.8,5.7,6.8s5.7-1.8,5.7-7c0-5.8-2.2-9.5-9.4-15.8
				c-9.2-8.1-12.2-13.8-12.2-21.8c0-11,5.7-17.4,16.4-17.4c10.7,0,16,6.4,16,17.6v2.9h-10.4v-3.6c0-5-2-6.9-5.5-6.9
				s-5.5,1.9-5.5,6.7c0,5.1,2.3,8.8,9.5,15.1c9.2,8.1,12.1,13.7,12.1,22.4c0,11.4-5.8,17.8-16.6,17.8
				C-305.2-302.4-310.6-308.8-310.6-320z"/>
			<path class="st3" d="M-271.9-320v-53.4h11v54.2c0,5,2.1,6.8,5.6,6.8c3.5,0,5.6-1.8,5.6-6.8v-54.2h10.6v53.4
				c0,11.2-5.6,17.6-16.4,17.6C-266.3-302.4-271.9-308.8-271.9-320z"/>
			<path class="st3" d="M-231.3-373.4h13.8l10.7,41.9h0.2v-41.9h9.8v70h-11.3l-13.2-51.1h-0.2v51.1h-9.8V-373.4z"/>
		</g>
		<g class="st2">
			<path class="st3" d="M-295.4-447.7h14.8l11.3,69.3h-10.9l-2-13.8v0.2h-12.4l-2,13.6h-10.1L-295.4-447.7z M-283.5-401.4l-4.9-34.3
				h-0.2l-4.8,34.3H-283.5z"/>
			<path class="st3" d="M-264.1-447.7h16.1c11.3,0,16.1,5.2,16.1,15.9v4.3c0,7.1-2.3,11.7-7.1,13.7v0.2c5.4,1.7,7.2,6.8,7.2,14.7
				v12.2c0,3.4,0.1,5.8,1.2,8.4h-11.1c-0.6-1.8-1-2.9-1-8.5v-12.8c0-6.4-1.9-8.5-6.8-8.5h-3.8v29.7h-10.9L-264.1-447.7L-264.1-447.7
				z M-249.2-418c4.1,0,6.5-1.8,6.5-7.3v-5.3c0-5-1.7-7.1-5.5-7.1h-5v19.8h4V-418z"/>
			<path class="st3" d="M-215.9-437.8h-11.4v-9.9h33.7v9.9H-205v59.4h-10.9V-437.8z"/>
		</g>
	</g>
	<g>
		
			<linearGradient id="SVGID_1_" gradientUnits="userSpaceOnUse" x1="-117.0129" y1="647.9111" x2="-117.0129" y2="637.9728" gradientTransform="matrix(1 0 0 -1 0 180.8783)">
			<stop  offset="0" style="stop-color:#24FEFE"/>
			<stop  offset="0.2766" style="stop-color:#29ACC4"/>
			<stop  offset="0.535" style="stop-color:#2E6693"/>
			<stop  offset="0.7488" style="stop-color:#313470"/>
			<stop  offset="0.9101" style="stop-color:#33155A"/>
			<stop  offset="1" style="stop-color:#340952"/>
		</linearGradient>
		<path class="st4" d="M-118-465.7l-1.5,6.3c-0.2,1,0.3,1.9,1.3,2.2c1,0.3,1.9-0.3,2.2-1.3l0,0l1.5-6.3c0.2-1-0.4-1.9-1.3-2.2
			C-116.8-467.2-117.8-466.6-118-465.7L-118-465.7z"/>
		
			<linearGradient id="SVGID_2_" gradientUnits="userSpaceOnUse" x1="-56.9104" y1="549.6725" x2="-56.9104" y2="546.0856" gradientTransform="matrix(1 0 0 -1 0 180.8783)">
			<stop  offset="0" style="stop-color:#24FEFE"/>
			<stop  offset="0.2766" style="stop-color:#29ACC4"/>
			<stop  offset="0.535" style="stop-color:#2E6693"/>
			<stop  offset="0.7488" style="stop-color:#313470"/>
			<stop  offset="0.9101" style="stop-color:#33155A"/>
			<stop  offset="1" style="stop-color:#340952"/>
		</linearGradient>
		<path class="st5" d="M-56.2-368.8h-1.4c-1,0-1.8,0.8-1.8,1.8s0.8,1.8,1.8,1.8h1.4c1,0,1.8-0.8,1.8-1.8
			C-54.4-368-55.2-368.8-56.2-368.8z"/>
		
			<linearGradient id="SVGID_3_" gradientUnits="userSpaceOnUse" x1="-69.3604" y1="635.0261" x2="-69.3604" y2="630.0361" gradientTransform="matrix(1 0 0 -1 0 180.8783)">
			<stop  offset="0" style="stop-color:#24FEFE"/>
			<stop  offset="0.2766" style="stop-color:#29ACC4"/>
			<stop  offset="0.535" style="stop-color:#2E6693"/>
			<stop  offset="0.7488" style="stop-color:#313470"/>
			<stop  offset="0.9101" style="stop-color:#33155A"/>
			<stop  offset="1" style="stop-color:#340952"/>
		</linearGradient>
		<path class="st6" d="M-69.9-453.6l-1.4,1.4c-0.7,0.7-0.7,1.8,0,2.5c0.7,0.7,1.8,0.7,2.5,0l0,0l1.4-1.4c0.7-0.7,0.7-1.8,0-2.5
			C-68.1-454.3-69.2-454.3-69.9-453.6z"/>
		
			<linearGradient id="SVGID_4_" gradientUnits="userSpaceOnUse" x1="-217.7604" y1="505.2245" x2="-217.7604" y2="501.0122" gradientTransform="matrix(1 0 0 -1 0 180.8783)">
			<stop  offset="0" style="stop-color:#24FEFE"/>
			<stop  offset="0.2766" style="stop-color:#29ACC4"/>
			<stop  offset="0.535" style="stop-color:#2E6693"/>
			<stop  offset="0.7488" style="stop-color:#313470"/>
			<stop  offset="0.9101" style="stop-color:#33155A"/>
			<stop  offset="1" style="stop-color:#340952"/>
		</linearGradient>
		<path class="st7" d="M-218.2-324.1l-1,0.6c-0.8,0.5-1.1,1.6-0.6,2.5c0.5,0.8,1.6,1.1,2.5,0.6l0,0l1-0.6c0.8-0.5,1.1-1.6,0.6-2.5
			S-217.3-324.6-218.2-324.1C-218.1-324.1-218.2-324.1-218.2-324.1z"/>
		
			<linearGradient id="SVGID_5_" gradientUnits="userSpaceOnUse" x1="-208.3104" y1="512.6404" x2="-208.3104" y2="505.4644" gradientTransform="matrix(1 0 0 -1 0 180.8783)">
			<stop  offset="0" style="stop-color:#24FEFE"/>
			<stop  offset="0.2766" style="stop-color:#29ACC4"/>
			<stop  offset="0.535" style="stop-color:#2E6693"/>
			<stop  offset="0.7488" style="stop-color:#313470"/>
			<stop  offset="0.9101" style="stop-color:#33155A"/>
			<stop  offset="1" style="stop-color:#340952"/>
		</linearGradient>
		<path class="st8" d="M-206.4-331.5l-5.7,3.6c-0.8,0.5-1.1,1.6-0.6,2.5c0.5,0.8,1.6,1.1,2.5,0.6l0,0l5.7-3.6
			c0.8-0.5,1.1-1.6,0.6-2.5S-205.6-332-206.4-331.5L-206.4-331.5L-206.4-331.5z"/>
		
			<linearGradient id="SVGID_6_" gradientUnits="userSpaceOnUse" x1="-137.9104" y1="474.6642" x2="-137.9104" y2="470.1132" gradientTransform="matrix(1 0 0 -1 0 180.8783)">
			<stop  offset="0" style="stop-color:#24FEFE"/>
			<stop  offset="0.2766" style="stop-color:#29ACC4"/>
			<stop  offset="0.535" style="stop-color:#2E6693"/>
			<stop  offset="0.7488" style="stop-color:#313470"/>
			<stop  offset="0.9101" style="stop-color:#33155A"/>
			<stop  offset="1" style="stop-color:#340952"/>
		</linearGradient>
		<path class="st9" d="M-137.9-293.8c-1,0-1.8,0.8-1.8,1.8v1c0,1,0.8,1.8,1.8,1.8s1.8-0.8,1.8-1.8v-1
			C-136.1-293-136.9-293.8-137.9-293.8z"/>
		
			<linearGradient id="SVGID_7_" gradientUnits="userSpaceOnUse" x1="-98.7104" y1="485.3264" x2="-98.7104" y2="480.0569" gradientTransform="matrix(1 0 0 -1 0 180.8783)">
			<stop  offset="0" style="stop-color:#24FEFE"/>
			<stop  offset="0.2766" style="stop-color:#29ACC4"/>
			<stop  offset="0.535" style="stop-color:#2E6693"/>
			<stop  offset="0.7488" style="stop-color:#313470"/>
			<stop  offset="0.9101" style="stop-color:#33155A"/>
			<stop  offset="1" style="stop-color:#340952"/>
		</linearGradient>
		<path class="st10" d="M-97.6-303.5c-0.5-0.9-1.6-1.2-2.4-0.7c-0.9,0.5-1.2,1.6-0.7,2.4l0,0l0.9,1.7c0.5,0.9,1.6,1.2,2.4,0.7
			c0.9-0.5,1.2-1.6,0.7-2.4L-97.6-303.5z"/>
		
			<linearGradient id="SVGID_8_" gradientUnits="userSpaceOnUse" x1="-184.3384" y1="475.0554" x2="-184.3384" y2="469.67" gradientTransform="matrix(1 0 0 -1 0 180.8783)">
			<stop  offset="0" style="stop-color:#24FEFE"/>
			<stop  offset="0.2766" style="stop-color:#29ACC4"/>
			<stop  offset="0.535" style="stop-color:#2E6693"/>
			<stop  offset="0.7488" style="stop-color:#313470"/>
			<stop  offset="0.9101" style="stop-color:#33155A"/>
			<stop  offset="1" style="stop-color:#340952"/>
		</linearGradient>
		<path class="st11" d="M-182.8-293.9c-0.8-0.5-1.9-0.3-2.5,0.6l-1.1,1.8c-0.5,0.8-0.3,1.9,0.5,2.5s1.9,0.3,2.5-0.5l0,0l1.1-1.8
			C-181.7-292.3-182-293.4-182.8-293.9L-182.8-293.9z"/>
		
			<linearGradient id="SVGID_9_" gradientUnits="userSpaceOnUse" x1="-179.1221" y1="484.0514" x2="-179.1221" y2="477.2274" gradientTransform="matrix(1 0 0 -1 0 180.8783)">
			<stop  offset="0" style="stop-color:#24FEFE"/>
			<stop  offset="0.2766" style="stop-color:#29ACC4"/>
			<stop  offset="0.535" style="stop-color:#2E6693"/>
			<stop  offset="0.7488" style="stop-color:#313470"/>
			<stop  offset="0.9101" style="stop-color:#33155A"/>
			<stop  offset="1" style="stop-color:#340952"/>
		</linearGradient>
		<path class="st12" d="M-177.1-302.9c-0.8-0.5-1.9-0.3-2.5,0.6l-2.1,3.2c-0.5,0.8-0.3,1.9,0.6,2.5c0.8,0.5,1.9,0.3,2.5-0.6l2.1-3.2
			C-176-301.3-176.3-302.4-177.1-302.9L-177.1-302.9z"/>
		
			<linearGradient id="SVGID_10_" gradientUnits="userSpaceOnUse" x1="-68.5487" y1="512.717" x2="-68.5487" y2="507.3662" gradientTransform="matrix(1 0 0 -1 0 180.8783)">
			<stop  offset="0" style="stop-color:#24FEFE"/>
			<stop  offset="0.2766" style="stop-color:#29ACC4"/>
			<stop  offset="0.535" style="stop-color:#2E6693"/>
			<stop  offset="0.7488" style="stop-color:#313470"/>
			<stop  offset="0.9101" style="stop-color:#33155A"/>
			<stop  offset="1" style="stop-color:#340952"/>
		</linearGradient>
		<path class="st13" d="M-66.1-329.8l-3-1.8c-0.9-0.5-2-0.2-2.5,0.6c-0.5,0.9-0.2,2,0.6,2.5l3,1.8c0.9,0.5,2,0.2,2.5-0.6
			C-65-328.2-65.2-329.3-66.1-329.8z"/>
		
			<linearGradient id="SVGID_11_" gradientUnits="userSpaceOnUse" x1="-199.4604" y1="629.6202" x2="-199.4604" y2="623.5361" gradientTransform="matrix(1 0 0 -1 0 180.8783)">
			<stop  offset="0" style="stop-color:#24FEFE"/>
			<stop  offset="0.2766" style="stop-color:#29ACC4"/>
			<stop  offset="0.535" style="stop-color:#2E6693"/>
			<stop  offset="0.7488" style="stop-color:#313470"/>
			<stop  offset="0.9101" style="stop-color:#33155A"/>
			<stop  offset="1" style="stop-color:#340952"/>
		</linearGradient>
		<path class="st14" d="M-201.8-448.3c-0.7,0.7-0.8,1.8-0.1,2.5l2.3,2.5c0.7,0.7,1.8,0.8,2.5,0.1c0.7-0.7,0.8-1.8,0.1-2.5l0,0
			l-2.3-2.5C-199.9-448.9-201.1-448.9-201.8-448.3z"/>
		
			<linearGradient id="SVGID_12_" gradientUnits="userSpaceOnUse" x1="-220.8597" y1="591.933" x2="-220.8597" y2="586.934" gradientTransform="matrix(1 0 0 -1 0 180.8783)">
			<stop  offset="0" style="stop-color:#24FEFE"/>
			<stop  offset="0.2766" style="stop-color:#29ACC4"/>
			<stop  offset="0.535" style="stop-color:#2E6693"/>
			<stop  offset="0.7488" style="stop-color:#313470"/>
			<stop  offset="0.9101" style="stop-color:#33155A"/>
			<stop  offset="1" style="stop-color:#340952"/>
		</linearGradient>
		<path class="st15" d="M-219.2-406.1c1,0,1.8-0.8,1.8-1.8c0-0.7-0.4-1.4-1.1-1.7l-3.4-1.4c-0.9-0.4-2,0.1-2.3,1s0.1,2,1,2.3
			l3.4,1.4C-219.6-406.1-219.4-406.1-219.2-406.1z"/>
		
			<linearGradient id="SVGID_13_" gradientUnits="userSpaceOnUse" x1="-136.2659" y1="648.95" x2="-136.2659" y2="479.795" gradientTransform="matrix(1 0 0 -1 0 180.8783)">
			<stop  offset="0" style="stop-color:#24FEFE"/>
			<stop  offset="0.2766" style="stop-color:#29ACC4"/>
			<stop  offset="0.535" style="stop-color:#2E6693"/>
			<stop  offset="0.7488" style="stop-color:#313470"/>
			<stop  offset="0.9101" style="stop-color:#33155A"/>
			<stop  offset="1" style="stop-color:#340952"/>
		</linearGradient>
		<path class="st16" d="M-54.6-410.6l-13.8,5.6l-6.4,0.9c-5.5,0.8-11-1.6-14.1-6.3c-3.3-4.6-3.6-10.7-0.9-15.7l3.1-5.8
			c0,0,0,0,0.1-0.1l8.2-8.2c0.7-0.7,0.7-1.8,0-2.5c-0.7-0.7-1.8-0.7-2.5,0l0,0l-8,8c-0.1,0-0.1,0.1-0.2,0.1l-5.7,4.1
			c-4.5,3.3-10.5,3.7-15.4,1.1c-5-2.6-8.2-7.8-8-13.5l0.1-7c0-1-0.8-1.8-1.8-1.8c-0.7,0-1.3,0.4-1.6,1l-3.2,6.3
			c-3.6,7.3-12.5,10.3-19.8,6.6c-2.9-1.4-5.2-3.8-6.6-6.6l-2.9-5.8c0,0,0,0,0-0.1l-3.7-16.4c-0.2-1-1.2-1.6-2.2-1.3
			c-1,0.2-1.5,1.2-1.3,2.1l3.6,15.9v0.1l0.1,7c0.1,5.7-3,10.9-8,13.5c-4.9,2.6-10.9,2.2-15.4-1.1l-5.7-4.1c0,0-0.1,0-0.1-0.1
			l-5.2-5.6c-0.7-0.7-1.8-0.8-2.5-0.1s-0.8,1.8-0.1,2.5l5.4,5.9l0.1,0.1l3.1,5.8c2.7,5,2.4,11.1-0.9,15.7c-3.1,4.6-8.6,7.1-14.1,6.3
			l-6.4-0.9l-4.5-1.8c-0.9-0.4-2,0.1-2.3,1c-0.3,0.9,0.1,2,1,2.3l3.9,1.6l0.1,0.1l5.8,3.9c6.9,4.7,8.6,14,4,20.9
			c-1.7,2.6-4.3,4.5-7.2,5.6l-6.6,2.4c-0.1,0-0.2,0.1-0.3,0.2l-5.2,0.7c-1,0.1-1.7,1-1.6,2c0.1,0.9,0.9,1.6,1.8,1.6
			c0.1,0,0.2,0,0.2,0l6-0.7c0.1,0,0.3,0,0.4-0.1l6.1,0.7c5.6,0.6,10.3,4.3,12.3,9.5c2.1,5.3,1,11.3-2.9,15.4l-4.7,5.2
			c-0.7,0.7-0.6,1.9,0.1,2.5c0.5,0.5,1.2,0.6,1.9,0.3l6.5-2.6c5.2-2.1,11.1-1.1,15.2,2.7c4.3,3.7,6.1,9.6,4.6,15l-1.8,6.8
			c-0.2,1,0.3,1.9,1.3,2.2c0.7,0.2,1.4-0.1,1.8-0.6l4.6-5.3c5.3-6.2,14.7-6.9,20.9-1.6c2.4,2.1,4.1,4.9,4.8,8l1.6,6.8
			c0.2,1,1.2,1.6,2.2,1.3c0.7-0.2,1.2-0.7,1.3-1.3l1.6-6.8c1.8-8,9.7-13,17.7-11.2c3.1,0.7,5.9,2.4,8,4.8l4.6,5.3
			c0.6,0.8,1.8,0.8,2.5,0.2c0.5-0.4,0.7-1.1,0.6-1.8l-2-6.8c-1.5-5.5,0.3-11.3,4.6-15c4.1-3.7,10.1-4.8,15.2-2.7l6.5,2.6
			c0.9,0.4,2-0.1,2.3-1c0.3-0.6,0.1-1.4-0.3-1.9l-4.7-5.2c-3.8-4.2-5-10.2-2.9-15.4c1.9-5.3,6.7-9,12.3-9.5l6.9-0.8
			c1-0.1,1.7-1,1.6-2c-0.1-0.7-0.5-1.3-1.2-1.5l-6.6-2.4c-7.8-2.9-11.7-11.6-8.8-19.3c1.1-2.9,3.1-5.4,5.6-7.2l5.8-3.9l0.1-0.1
			l13.2-5.4c0.9-0.4,1.3-1.4,1-2.3C-52.7-410.5-53.7-410.9-54.6-410.6L-54.6-410.6z M-137.9-328.7c-25.7,0-46.6-20.9-46.6-46.6
			c0-25.7,20.9-46.6,46.6-46.6s46.6,20.9,46.6,46.6C-91.4-349.6-112.2-328.8-137.9-328.7z"/>
		
			<linearGradient id="SVGID_14_" gradientUnits="userSpaceOnUse" x1="-137.9104" y1="599.1725" x2="-137.9104" y2="513.1725" gradientTransform="matrix(1 0 0 -1 0 180.8783)">
			<stop  offset="0" style="stop-color:#24FEFE"/>
			<stop  offset="0.2766" style="stop-color:#29ACC4"/>
			<stop  offset="0.535" style="stop-color:#2E6693"/>
			<stop  offset="0.7488" style="stop-color:#313470"/>
			<stop  offset="0.9101" style="stop-color:#33155A"/>
			<stop  offset="1" style="stop-color:#340952"/>
		</linearGradient>
		<path class="st17" d="M-137.9-418.3c-23.7,0-43,19.2-43,43c0,23.8,19.2,43,43,43c23.7,0,43-19.2,43-43
			C-94.9-399-114.2-418.3-137.9-418.3z M-115.3-399.9c-0.6,0.8-1.8,0.9-2.5,0.2l0,0c-0.8-0.6-1.6-1.2-2.4-1.8
			c-0.8-0.5-1.1-1.7-0.5-2.5c0.5-0.8,1.7-1.1,2.5-0.5l0,0c0.9,0.6,1.8,1.3,2.7,2C-114.8-401.8-114.7-400.6-115.3-399.9L-115.3-399.9
			L-115.3-399.9z M-104.8-379.7c-1,0.2-1.9-0.5-2.1-1.4l0,0c-0.8-4.2-2.4-8.2-4.8-11.7c-0.6-0.8-0.3-1.9,0.5-2.5s1.9-0.3,2.5,0.5
			c2.7,3.9,4.5,8.4,5.4,13C-103.2-380.9-103.9-379.9-104.8-379.7L-104.8-379.7z"/>
	</g>
</g>
<g>
	<g id="Gruppe_13" transform="translate(342 406.844)">
		<g id="Gruppe_6" transform="translate(0 50.833)">
			<g class="st2">
				<path class="st3" d="M-208.6-692v-4h10.5v4.9c0,5,2.2,6.9,5.8,6.9c3.5,0,5.8-1.8,5.8-7.1c0-5.9-2.2-9.6-9.5-16
					c-9.3-8.2-12.3-13.9-12.3-22c0-11.1,5.8-17.6,16.6-17.6s16.2,6.5,16.2,17.8v2.9H-186v-3.6c0-5-2-7-5.6-7c-3.5,0-5.6,1.9-5.6,6.8
					c0,5.2,2.3,8.9,9.6,15.3c9.3,8.2,12.2,13.8,12.2,22.6c0,11.5-5.9,18-16.8,18C-203.1-674.1-208.6-680.6-208.6-692z"/>
				<path class="st3" d="M-160.4-735.8H-172v-10.1h34.3v10.1h-11.6v60.6h-11.1L-160.4-735.8L-160.4-735.8z"/>
				<path class="st3" d="M-128.4-745.9h15l11.5,70.7H-113l-2-14v0.2h-12.6l-2,13.8h-10.3L-128.4-745.9z M-116.3-698.6l-4.9-34.9
					h-0.2l-4.8,34.9H-116.3z"/>
				<path class="st3" d="M-96.5-745.9H-80c11.5,0,16.5,5.4,16.5,16.3v4.3c0,7.3-2.3,11.9-7.3,13.9v0.3c5.6,1.7,7.4,7,7.4,14.9v12.4
					c0,3.4,0.1,6,1.2,8.6h-11.3c-0.6-1.8-1-2.9-1-8.7v-12.9c0-6.6-1.9-8.7-7-8.7h-3.8v30.3h-11.1v-70.7H-96.5z M-81.4-715.6
					c4.1,0,6.7-1.8,6.7-7.5v-5.4c0-5-1.7-7.3-5.7-7.3h-5.1v20.2H-81.4z"/>
			</g>
			<g class="st2">
				<path class="st3" d="M-208.4-770.5v-38c0-10.9,5.7-17.4,16.4-17.4s16.4,6.5,16.4,17.4v7.5h-10.5v-8.2c0-4.6-2.2-6.6-5.6-6.6
					s-5.6,1.9-5.6,6.6v39.5c0,4.6,2.2,6.5,5.6,6.5s5.6-1.8,5.6-6.5v-10.8h10.5v10c0,10.9-5.7,17.4-16.4,17.4
					C-202.8-753.2-208.4-759.6-208.4-770.5z"/>
				<path class="st3" d="M-169.6-771v-37.1c0-11.3,6-17.8,16.9-17.8s16.8,6.5,16.8,17.8v37.2c0,11.3-6,17.8-16.9,17.8
					S-169.6-759.6-169.6-771z M-147-770.2v-38.6c0-5-2.2-7-5.8-7c-3.5,0-5.8,1.9-5.8,7v38.6c0,5,2.2,7,5.8,7
					C-149.2-763.3-147-765.2-147-770.2z"/>
				<path class="st3" d="M-128.4-824.9h17c11.1,0,16.6,6.2,16.6,17.5v35.8c0,11.3-5.5,17.5-16.6,17.5h-17V-824.9z M-111.7-764.3
					c3.5,0,5.7-1.8,5.7-6.9V-808c0-5.1-2.1-6.9-5.7-6.9h-5.7v50.5L-111.7-764.3L-111.7-764.3z"/>
				<path class="st3" d="M-87.4-824.9h30.3v10.1h-19.2v18.7H-61v10.1h-15.3v21.7h19.2v10.1h-30.3V-824.9z"/>
			</g>
		</g>
	</g>
	<linearGradient id="SVGID_15_" gradientUnits="userSpaceOnUse" x1="134.737" y1="-266.3113" x2="82.2768" y2="-175.4476">
		<stop  offset="0" style="stop-color:#24FEFE"/>
		<stop  offset="3.398842e-02" style="stop-color:#25F3F7"/>
		<stop  offset="0.309" style="stop-color:#2AA1BD"/>
		<stop  offset="0.5527" style="stop-color:#2E608F"/>
		<stop  offset="0.7561" style="stop-color:#31316E"/>
		<stop  offset="0.9113" style="stop-color:#33145A"/>
		<stop  offset="1" style="stop-color:#340952"/>
	</linearGradient>
	<path class="st18" d="M66.7-255.2c-0.9,1-1.2,2.3-0.7,3.6l11.9,31.1l-18.8,27.4c-1.1,1.6-0.7,3.7,0.9,4.8c0.6,0.4,1.4,0.6,2.1,0.6
		l33.3-1.7l20.3,26.4c1.2,1.5,3.3,1.8,4.8,0.6c0.6-0.5,1-1.1,1.2-1.8l8.6-32.2l31.4-11.1c1.8-0.6,2.7-2.6,2.1-4.4
		c-0.3-0.7-0.7-1.3-1.4-1.7l-27.9-18.1l-0.9-33.3c-0.1-1.9-1.6-3.4-3.5-3.3c-0.8,0-1.5,0.3-2.1,0.8l-25.9,20.9l-31.9-9.4
		C68.9-256.5,67.6-256.2,66.7-255.2L66.7-255.2z"/>
	
		<linearGradient id="SVGID_16_" gradientUnits="userSpaceOnUse" x1="317.1754" y1="-442.0685" x2="329.8469" y2="-442.0685" gradientTransform="matrix(0.6419 -2.805527e-02 2.685749e-02 0.6145 84.9834 72.1477)">
		<stop  offset="0" style="stop-color:#24FEFE"/>
		<stop  offset="3.398842e-02" style="stop-color:#25F3F7"/>
		<stop  offset="0.309" style="stop-color:#2AA1BD"/>
		<stop  offset="0.5527" style="stop-color:#2E608F"/>
		<stop  offset="0.7561" style="stop-color:#31316E"/>
		<stop  offset="0.9113" style="stop-color:#33145A"/>
		<stop  offset="1" style="stop-color:#340952"/>
	</linearGradient>
	<path class="st19" d="M279.5-211.6l-1.6,1.3c-1.4,1.1-1.6,3-0.5,4.3c1.1,1.3,3.1,1.5,4.5,0.5c0,0,0,0,0,0l1.6-1.3
		c1.4-1.1,1.6-3,0.5-4.3C283-212.5,281-212.7,279.5-211.6C279.6-211.6,279.6-211.6,279.5-211.6z"/>
	
		<linearGradient id="SVGID_17_" gradientUnits="userSpaceOnUse" x1="322.102" y1="337.1468" x2="344.362" y2="337.1468" gradientTransform="matrix(-0.588 -0.8088 0.8088 -0.588 20.3897 193.3125)">
		<stop  offset="0" style="stop-color:#24FEFE"/>
		<stop  offset="3.398842e-02" style="stop-color:#25F3F7"/>
		<stop  offset="0.309" style="stop-color:#2AA1BD"/>
		<stop  offset="0.5527" style="stop-color:#2E608F"/>
		<stop  offset="0.7561" style="stop-color:#31316E"/>
		<stop  offset="0.9113" style="stop-color:#33145A"/>
		<stop  offset="1" style="stop-color:#340952"/>
	</linearGradient>
	<path class="st20" d="M90.6-283.5c-5,3.6-6.1,10.6-2.5,15.5c3.6,5,10.6,6.1,15.5,2.5c5-3.6,6.1-10.6,2.5-15.5c0,0,0,0,0,0
		C102.5-286,95.6-287.1,90.6-283.5z"/>
	
		<linearGradient id="SVGID_18_" gradientUnits="userSpaceOnUse" x1="391.0811" y1="-110.8895" x2="401.0502" y2="-110.8895" gradientTransform="matrix(0.4948 -0.869 0.869 0.4948 14.6686 97.1327)">
		<stop  offset="0" style="stop-color:#24FEFE"/>
		<stop  offset="3.398842e-02" style="stop-color:#25F3F7"/>
		<stop  offset="0.309" style="stop-color:#2AA1BD"/>
		<stop  offset="0.5527" style="stop-color:#2E608F"/>
		<stop  offset="0.7561" style="stop-color:#31316E"/>
		<stop  offset="0.9113" style="stop-color:#33145A"/>
		<stop  offset="1" style="stop-color:#340952"/>
	</linearGradient>
	<path class="st21" d="M118.6-299.5c1.4-2.4,0.5-5.4-1.9-6.8c-2.4-1.4-5.4-0.5-6.8,1.9c-1.4,2.4-0.5,5.4,1.9,6.8l0,0
		C114.2-296.2,117.3-297.1,118.6-299.5z"/>
	
		<linearGradient id="SVGID_19_" gradientUnits="userSpaceOnUse" x1="-133.9111" y1="-87.1182" x2="-122.5374" y2="-87.1182" gradientTransform="matrix(0.7063 0.7079 -0.7079 0.7063 175.1897 -33.9343)">
		<stop  offset="0" style="stop-color:#24FEFE"/>
		<stop  offset="3.398842e-02" style="stop-color:#25F3F7"/>
		<stop  offset="0.309" style="stop-color:#2AA1BD"/>
		<stop  offset="0.5527" style="stop-color:#2E608F"/>
		<stop  offset="0.7561" style="stop-color:#31316E"/>
		<stop  offset="0.9113" style="stop-color:#33145A"/>
		<stop  offset="1" style="stop-color:#340952"/>
	</linearGradient>
	<path class="st22" d="M142.3-182.2c2.2,2.2,5.8,2.2,8,0s2.2-5.8,0-8s-5.8-2.2-8,0l0,0C140.1-188,140.1-184.4,142.3-182.2z
		 M146.1-186L146.1-186C146.5-186.5,146.5-186.4,146.1-186L146.1-186z"/>
	<linearGradient id="SVGID_20_" gradientUnits="userSpaceOnUse" x1="267.7763" y1="-381.0654" x2="284.5923" y2="-381.0654">
		<stop  offset="0" style="stop-color:#24FEFE"/>
		<stop  offset="3.398842e-02" style="stop-color:#25F3F7"/>
		<stop  offset="0.309" style="stop-color:#2AA1BD"/>
		<stop  offset="0.5527" style="stop-color:#2E608F"/>
		<stop  offset="0.7561" style="stop-color:#31316E"/>
		<stop  offset="0.9113" style="stop-color:#33145A"/>
		<stop  offset="1" style="stop-color:#340952"/>
	</linearGradient>
	<path class="st23" d="M276.2-372.7c4.6,0,8.4-3.8,8.4-8.4c0-4.6-3.8-8.4-8.4-8.4c-4.6,0-8.4,3.8-8.4,8.4c0,0,0,0,0,0
		C267.8-376.4,271.5-372.7,276.2-372.7z"/>
</g>
<g>
	<g id="Gruppe_5" transform="translate(0 9.407)">
		<g class="st2">
			<path class="st3" d="M13.9,21.4h13.8c9,0,13.4,5,13.4,14.2v29c0,9.2-4.4,14.2-13.4,14.2H13.9V21.4z M27.5,70.6
				c2.9,0,4.6-1.5,4.6-5.6V35.2c0-4.1-1.7-5.6-4.6-5.6h-4.6v41H27.5z"/>
			<path class="st3" d="M47.2,21.4h24.6v8.2H56.2v15.2h12.4V53H56.2v17.6h15.6v8.2H47.2V21.4z"/>
			<path class="st3" d="M75.6,65.2v-3.3h8.5v3.9c0,4.1,1.8,5.6,4.7,5.6c2.9,0,4.7-1.5,4.7-5.7c0-4.8-1.8-7.8-7.7-13
				c-7.5-6.6-10-11.3-10-17.9c0-9,4.7-14.3,13.4-14.3c8.8,0,13.1,5.2,13.1,14.4v2.4h-8.5v-3c0-4.1-1.6-5.7-4.5-5.7s-4.5,1.6-4.5,5.5
				c0,4.2,1.9,7.2,7.8,12.4c7.5,6.6,9.9,11.2,9.9,18.4c0,9.3-4.8,14.6-13.6,14.6C80,79.6,75.6,74.3,75.6,65.2z"/>
			<path class="st3" d="M107.6,21.4h9v57.4h-9V21.4z"/>
			<path class="st3" d="M122.7,65.2V35c0-9.2,4.6-14.4,13.4-14.4c8.9,0,13.4,5.2,13.4,14.4v4.9H141v-5.5c0-4.1-1.8-5.7-4.7-5.7
				c-2.9,0-4.7,1.6-4.7,5.7v31.4c0,4.1,1.8,5.6,4.7,5.6c2.9,0,4.7-1.5,4.7-5.6V54.6h-4.5v-8.2h13v18.8c0,9.2-4.6,14.4-13.4,14.4
				C127.3,79.6,122.7,74.3,122.7,65.2z"/>
			<path class="st3" d="M155.4,21.4h11.3l8.8,34.4h0.2V21.4h8v57.4h-9.3l-10.8-41.9h-0.2v41.9h-8V21.4z"/>
		</g>
		<g class="st2">
			<path class="st3" d="M14.2,123.6v-2.9h7.6v3.5c0,3.6,1.6,5,4.2,5c2.6,0,4.2-1.3,4.2-5.1c0-4.2-1.6-6.9-6.9-11.5
				c-6.7-5.9-8.9-10.1-8.9-15.9c0-8,4.2-12.7,12-12.7s11.7,4.7,11.7,12.8v2.1h-7.6v-2.6c0-3.6-1.5-5-4-5c-2.6,0-4,1.4-4,4.9
				c0,3.7,1.7,6.4,6.9,11c6.7,5.9,8.8,10,8.8,16.4c0,8.3-4.2,13-12.1,13S14.2,131.8,14.2,123.6z"/>
			<path class="st3" d="M48.7,84.7h10.9l8.3,51.1h-8l-1.5-10.1v0.1h-9.1l-1.5,10h-7.4L48.7,84.7z M57.4,118.8l-3.6-25.3h-0.1
				l-3.5,25.3C50.2,118.8,57.4,118.8,57.4,118.8z"/>
			<path class="st3" d="M74.7,92h-8.4v-7.3h24.8V92h-8.4v43.8h-8V92z"/>
			<path class="st3" d="M94.7,123.6v-39h8v39.6c0,3.6,1.5,5,4.1,5s4.1-1.3,4.1-5V84.6h7.7v39c0,8.2-4.1,12.8-12,12.8
				S94.7,131.8,94.7,123.6z"/>
			<path class="st3" d="M124.3,84.7h11.9c8.3,0,11.9,3.9,11.9,11.8v3.1c0,5.3-1.7,8.6-5.3,10.1v0.1c4,1.2,5.3,5,5.3,10.8v9
				c0,2.5,0.1,4.3,0.9,6.2h-8.2c-0.4-1.3-0.7-2.1-0.7-6.3v-9.4c0-4.7-1.4-6.3-5-6.3h-2.8v21.9h-8L124.3,84.7L124.3,84.7z
				 M135.3,106.6c3,0,4.8-1.3,4.8-5.4v-3.9c0-3.7-1.2-5.3-4.1-5.3h-3.7v14.6C132.3,106.6,135.3,106.6,135.3,106.6z"/>
			<path class="st3" d="M153.7,84.7h10.1l7.8,30.6h0.1V84.7h7.2v51.1h-8.2l-9.6-37.3H161v37.3h-7.2L153.7,84.7L153.7,84.7z"/>
		</g>
	</g>
	<g>
		<linearGradient id="SVGID_21_" gradientUnits="userSpaceOnUse" x1="160.1731" y1="128.0392" x2="265.5697" y2="128.0392">
			<stop  offset="0" style="stop-color:#24FEFE"/>
			<stop  offset="3.398842e-02" style="stop-color:#25F3F7"/>
			<stop  offset="0.309" style="stop-color:#2AA1BD"/>
			<stop  offset="0.5527" style="stop-color:#2E608F"/>
			<stop  offset="0.7561" style="stop-color:#31316E"/>
			<stop  offset="0.9113" style="stop-color:#33145A"/>
			<stop  offset="1" style="stop-color:#340952"/>
		</linearGradient>
		<path class="st24" d="M265.6,110c-1.4-1.2-2.5-2.6-3.3-4.2c-2.5,2.1-5.1,4.1-7.8,6.1c-18.3,13.9-37.3,24.7-53.4,30.4
			c-9.9,3.5-18.1,4.9-24.1,4c-4.1-0.6-7.2-2.1-9.2-4.7c-4.7-6.2-2-17.1,7.4-30.9c-0.8-2.2-1.4-4.4-1.9-6.6
			c-6.1,8.2-10.1,15.8-11.9,22.4c-2.1,7.5-1.3,13.7,2.2,18.4c8,10.6,25.3,7.4,38.5,2.9c16.5-5.7,36.8-17.2,55.7-31.5
			C260.4,114.2,263,112.1,265.6,110L265.6,110z"/>
		<linearGradient id="SVGID_22_" gradientUnits="userSpaceOnUse" x1="263.866" y1="99.301" x2="286.0052" y2="99.301">
			<stop  offset="0" style="stop-color:#24FEFE"/>
			<stop  offset="3.398842e-02" style="stop-color:#25F3F7"/>
			<stop  offset="0.309" style="stop-color:#2AA1BD"/>
			<stop  offset="0.5527" style="stop-color:#2E608F"/>
			<stop  offset="0.7561" style="stop-color:#31316E"/>
			<stop  offset="0.9113" style="stop-color:#33145A"/>
			<stop  offset="1" style="stop-color:#340952"/>
		</linearGradient>
		<path class="st25" d="M264,97.8c-0.8,6.1,3.4,11.6,9.5,12.5c6.1,0.8,11.6-3.4,12.5-9.5c0.8-6.1-3.4-11.6-9.5-12.5
			C270.4,87.5,264.8,91.7,264,97.8z"/>
		<linearGradient id="SVGID_23_" gradientUnits="userSpaceOnUse" x1="268.9688" y1="58.5226" x2="314.1446" y2="58.5226">
			<stop  offset="0" style="stop-color:#24FEFE"/>
			<stop  offset="3.398842e-02" style="stop-color:#25F3F7"/>
			<stop  offset="0.309" style="stop-color:#2AA1BD"/>
			<stop  offset="0.5527" style="stop-color:#2E608F"/>
			<stop  offset="0.7561" style="stop-color:#31316E"/>
			<stop  offset="0.9113" style="stop-color:#33145A"/>
			<stop  offset="1" style="stop-color:#340952"/>
		</linearGradient>
		<path class="st26" d="M293.2,26.1c-6.8,0.1-14.9,1.9-24.2,5.4c2,1.1,3.9,2.3,5.8,3.6c15.8-5.3,27-4.9,31.7,1.3
			c6.9,9.1-2.3,28.5-24,50.8c1.5,1,2.9,2.2,3.9,3.7c11.1-11.4,19.2-22.4,23.7-31.9c5.1-10.9,5.3-19.6,0.6-25.8
			C307.1,28.4,301.2,26,293.2,26.1z"/>
		<linearGradient id="SVGID_24_" gradientUnits="userSpaceOnUse" x1="174.7018" y1="82.9327" x2="295.5851" y2="82.9327">
			<stop  offset="0" style="stop-color:#24FEFE"/>
			<stop  offset="3.398842e-02" style="stop-color:#25F3F7"/>
			<stop  offset="0.309" style="stop-color:#2AA1BD"/>
			<stop  offset="0.5527" style="stop-color:#2E608F"/>
			<stop  offset="0.7561" style="stop-color:#31316E"/>
			<stop  offset="0.9113" style="stop-color:#33145A"/>
			<stop  offset="1" style="stop-color:#340952"/>
		</linearGradient>
		<path class="st27" d="M286.9,51.2c-3.7-5-8.2-9.3-13.2-13c-0.1,0-0.1-0.1-0.2-0.1c-2.8-2-5.8-3.8-8.9-5.3c-0.1,0-0.2-0.1-0.4-0.2
			c-21.1-10.1-46.2-7.6-64.8,6.5c-27.5,20.8-32.9,60.1-12,87.6c3.6,4.8,7.9,9,12.7,12.5l0,0c15.8-5.6,34.4-16.3,52.5-30
			c2.9-2.2,5.8-4.5,8.5-6.7c-1.8-7.6,2.8-15.3,10.5-17.2c1.7-0.4,3.5-0.5,5.3-0.3c0.9,0.1,1.8,0.3,2.6,0.6c6.5-6.6,11.9-13,16.1-19
			C293.5,61.3,290.6,56,286.9,51.2L286.9,51.2z M191.5,66.1c-4.5,9-6.3,19.1-5,29.1c0.1,0.9-0.5,1.7-1.4,1.8
			c-0.9,0.1-1.7-0.5-1.8-1.4c0,0,0,0,0,0c-1.3-10.6,0.6-21.4,5.4-30.9c0.4-0.8,1.3-1.1,2.1-0.7C191.6,64.4,191.9,65.3,191.5,66.1
			C191.5,66.1,191.5,66.1,191.5,66.1L191.5,66.1z M196.2,122.1c-0.7,0.5-1.7,0.4-2.2-0.3c-2.6-3.4-4.8-7.1-6.5-11.1
			c-0.4-0.8,0-1.7,0.8-2.1c0.8-0.4,1.7,0,2.1,0.8c1.6,3.7,3.7,7.2,6.1,10.4C197,120.6,196.9,121.6,196.2,122.1L196.2,122.1z"/>
		<linearGradient id="SVGID_25_" gradientUnits="userSpaceOnUse" x1="213.1506" y1="116.5133" x2="299.6342" y2="116.5133">
			<stop  offset="0" style="stop-color:#24FEFE"/>
			<stop  offset="3.398842e-02" style="stop-color:#25F3F7"/>
			<stop  offset="0.309" style="stop-color:#2AA1BD"/>
			<stop  offset="0.5527" style="stop-color:#2E608F"/>
			<stop  offset="0.7561" style="stop-color:#31316E"/>
			<stop  offset="0.9113" style="stop-color:#33145A"/>
			<stop  offset="1" style="stop-color:#340952"/>
		</linearGradient>
		<path class="st28" d="M299.2,81.5c-3.3,4-7,8.2-11.1,12.4c0.3,0.7,0.5,1.5,0.7,2.2c1.8,7.7-3,15.3-10.6,17.1
			c-3.3,0.8-6.9,0.3-9.9-1.3c-2.8,2.3-5.7,4.6-8.6,6.8c-15.7,11.9-31.9,21.6-46.5,28c31.9,13.2,68.5-1.9,81.7-33.7
			C299,103,300.5,92.2,299.2,81.5L299.2,81.5z"/>
		<linearGradient id="SVGID_26_" gradientUnits="userSpaceOnUse" x1="179.9529" y1="22.07" x2="197.366" y2="22.07">
			<stop  offset="0" style="stop-color:#24FEFE"/>
			<stop  offset="3.398842e-02" style="stop-color:#25F3F7"/>
			<stop  offset="0.309" style="stop-color:#2AA1BD"/>
			<stop  offset="0.5527" style="stop-color:#2E608F"/>
			<stop  offset="0.7561" style="stop-color:#31316E"/>
			<stop  offset="0.9113" style="stop-color:#33145A"/>
			<stop  offset="1" style="stop-color:#340952"/>
		</linearGradient>
		<path class="st29" d="M180.8,22.5c2.8,1.4,4.7,4,5.3,7c0.2,0.9,1,1.4,1.8,1.3c0.5-0.1,0.9-0.4,1.1-0.9c1.4-2.8,4-4.7,7-5.3
			c0.9-0.2,1.4-1,1.3-1.8c-0.1-0.5-0.4-0.9-0.9-1.1c-2.8-1.4-4.7-4-5.3-7c-0.2-0.9-1-1.4-1.8-1.3c-0.5,0.1-0.9,0.4-1.1,0.9
			c-1.4,2.8-4,4.7-7,5.3c-0.9,0.2-1.4,1-1.3,1.8C180.1,21.9,180.4,22.3,180.8,22.5z"/>
		<linearGradient id="SVGID_27_" gradientUnits="userSpaceOnUse" x1="273.49" y1="157.3241" x2="290.9021" y2="157.3241">
			<stop  offset="0" style="stop-color:#24FEFE"/>
			<stop  offset="3.398842e-02" style="stop-color:#25F3F7"/>
			<stop  offset="0.309" style="stop-color:#2AA1BD"/>
			<stop  offset="0.5527" style="stop-color:#2E608F"/>
			<stop  offset="0.7561" style="stop-color:#31316E"/>
			<stop  offset="0.9113" style="stop-color:#33145A"/>
			<stop  offset="1" style="stop-color:#340952"/>
		</linearGradient>
		<path class="st30" d="M290,156.9c-2.8-1.4-4.7-4-5.3-7c-0.2-0.9-1-1.4-1.8-1.3c-0.5,0.1-0.9,0.4-1.1,0.9c-1.4,2.8-4,4.7-7,5.3
			c-0.9,0.2-1.4,1-1.3,1.8c0.1,0.5,0.4,0.9,0.9,1.1c2.8,1.4,4.7,4,5.3,7c0.2,0.9,1,1.4,1.8,1.3c0.5-0.1,0.9-0.4,1.1-0.9
			c1.4-2.8,4-4.7,7-5.3c0.9-0.2,1.4-1,1.3-1.8C290.8,157.5,290.5,157.1,290,156.9z"/>
		<linearGradient id="SVGID_28_" gradientUnits="userSpaceOnUse" x1="260.2224" y1="171.1098" x2="266.9857" y2="171.1098">
			<stop  offset="0" style="stop-color:#24FEFE"/>
			<stop  offset="3.398842e-02" style="stop-color:#25F3F7"/>
			<stop  offset="0.309" style="stop-color:#2AA1BD"/>
			<stop  offset="0.5527" style="stop-color:#2E608F"/>
			<stop  offset="0.7561" style="stop-color:#31316E"/>
			<stop  offset="0.9113" style="stop-color:#33145A"/>
			<stop  offset="1" style="stop-color:#340952"/>
		</linearGradient>
		<path class="st31" d="M264.1,167.8c-1.8-0.3-3.6,1-3.8,2.9c-0.3,1.8,1,3.6,2.9,3.8c1.8,0.3,3.6-1,3.8-2.9c0,0,0,0,0,0
			C267.2,169.7,265.9,168,264.1,167.8z"/>
		<linearGradient id="SVGID_29_" gradientUnits="userSpaceOnUse" x1="206.0679" y1="10.7668" x2="212.8289" y2="10.7668">
			<stop  offset="0" style="stop-color:#24FEFE"/>
			<stop  offset="3.398842e-02" style="stop-color:#25F3F7"/>
			<stop  offset="0.309" style="stop-color:#2AA1BD"/>
			<stop  offset="0.5527" style="stop-color:#2E608F"/>
			<stop  offset="0.7561" style="stop-color:#31316E"/>
			<stop  offset="0.9113" style="stop-color:#33145A"/>
			<stop  offset="1" style="stop-color:#340952"/>
		</linearGradient>
		<path class="st32" d="M212.8,11.2c0.3-1.8-1-3.6-2.9-3.8s-3.6,1-3.8,2.9c-0.3,1.8,1,3.6,2.9,3.8C210.8,14.4,212.5,13.1,212.8,11.2
			z"/>
		<linearGradient id="SVGID_30_" gradientUnits="userSpaceOnUse" x1="319.2433" y1="34.5661" x2="327.465" y2="34.5661">
			<stop  offset="0" style="stop-color:#24FEFE"/>
			<stop  offset="3.398842e-02" style="stop-color:#25F3F7"/>
			<stop  offset="0.309" style="stop-color:#2AA1BD"/>
			<stop  offset="0.5527" style="stop-color:#2E608F"/>
			<stop  offset="0.7561" style="stop-color:#31316E"/>
			<stop  offset="0.9113" style="stop-color:#33145A"/>
			<stop  offset="1" style="stop-color:#340952"/>
		</linearGradient>
		<path class="st33" d="M319.9,23.1c-0.7,0.5-0.8,1.5-0.3,2.2c3.9,5.1,5.4,11.6,4.5,19.1c-0.1,0.9,0.5,1.7,1.4,1.8l0,0
			c0.9,0.1,1.7-0.5,1.8-1.4c1-8.4-0.7-15.6-5.1-21.4C321.6,22.8,320.6,22.6,319.9,23.1C319.9,23.1,319.9,23.1,319.9,23.1z"/>
		<linearGradient id="SVGID_31_" gradientUnits="userSpaceOnUse" x1="318.0286" y1="60.5576" x2="323.618" y2="60.5576">
			<stop  offset="0" style="stop-color:#24FEFE"/>
			<stop  offset="3.398842e-02" style="stop-color:#25F3F7"/>
			<stop  offset="0.309" style="stop-color:#2AA1BD"/>
			<stop  offset="0.5527" style="stop-color:#2E608F"/>
			<stop  offset="0.7561" style="stop-color:#31316E"/>
			<stop  offset="0.9113" style="stop-color:#33145A"/>
			<stop  offset="1" style="stop-color:#340952"/>
		</linearGradient>
		<path class="st34" d="M322.6,56.4c-0.8-0.3-1.7,0.1-2.1,0.9c0,0,0,0,0,0c-0.7,1.7-1.5,3.5-2.4,5.3c-0.4,0.8-0.1,1.7,0.7,2.1
			c0.8,0.4,1.7,0.1,2.1-0.7c0,0,0-0.1,0-0.1c0.9-1.9,1.7-3.7,2.5-5.5C323.8,57.6,323.4,56.7,322.6,56.4L322.6,56.4z"/>
	</g>
</g>
</svg>
